TITLE ""
FILE "Disc1Track07.mp3" MP3
  TRACK 01 AUDIO
    TITLE "Disc1Track07_01"
    INDEX 01 00:00:00
  TRACK 02 AUDIO
    TITLE "Disc1Track07_02"
    INDEX 01 00:01:29
  TRACK 03 AUDIO
    TITLE "Disc1Track07_03"
    INDEX 01 00:02:58
  TRACK 04 AUDIO
    TITLE "Disc1Track07_04"
    INDEX 01 00:04:26
  TRACK 05 AUDIO
    TITLE "Disc1Track07_05"
    INDEX 01 00:07:59
  TRACK 06 AUDIO
    TITLE "Disc1Track07_06"
    INDEX 01 00:08:16
  TRACK 07 AUDIO
    TITLE "Disc1Track07_07"
    INDEX 01 00:09:48
  TRACK 08 AUDIO
    TITLE "Disc1Track07_08"
    INDEX 01 00:11:39
  TRACK 09 AUDIO
    TITLE "Disc1Track07_09"
    INDEX 01 00:12:70
  TRACK 10 AUDIO
    TITLE "Disc1Track07_10"
    INDEX 01 00:16:56
  TRACK 11 AUDIO
    TITLE "Disc1Track07_11"
    INDEX 01 00:17:13
  TRACK 12 AUDIO
    TITLE "Disc1Track07_12"
    INDEX 01 00:18:45
  TRACK 13 AUDIO
    TITLE "Disc1Track07_13"
    INDEX 01 00:19:74
  TRACK 14 AUDIO
    TITLE "Disc1Track07_14"
    INDEX 01 00:21:32
  TRACK 15 AUDIO
    TITLE "Disc1Track07_15"
    INDEX 01 00:21:65
  TRACK 16 AUDIO
    TITLE "Disc1Track07_16"
    INDEX 01 00:23:23
  TRACK 17 AUDIO
    TITLE "Disc1Track07_17"
    INDEX 01 00:27:27
  TRACK 18 AUDIO
    TITLE "Disc1Track07_18"
    INDEX 01 00:28:58
  TRACK 19 AUDIO
    TITLE "Disc1Track07_19"
    INDEX 01 00:32:55
  TRACK 20 AUDIO
    TITLE "Disc1Track07_20"
    INDEX 01 00:33:14
  TRACK 21 AUDIO
    TITLE "Disc1Track07_21"
    INDEX 01 00:34:43
  TRACK 22 AUDIO
    TITLE "Disc1Track07_22"
    INDEX 01 00:36:71
  TRACK 23 AUDIO
    TITLE "Disc1Track07_23"
    INDEX 01 00:38:25
  TRACK 24 AUDIO
    TITLE "Disc1Track07_24"
    INDEX 01 00:42:36
  TRACK 25 AUDIO
    TITLE "Disc1Track07_25"
    INDEX 01 00:42:67
  TRACK 26 AUDIO
    TITLE "Disc1Track07_26"
    INDEX 01 00:44:37
  TRACK 27 AUDIO
    TITLE "Disc1Track07_27"
    INDEX 01 00:46:12
  TRACK 28 AUDIO
    TITLE "Disc1Track07_28"
    INDEX 01 00:47:57
  TRACK 29 AUDIO
    TITLE "Disc1Track07_29"
    INDEX 01 00:48:11
  TRACK 30 AUDIO
    TITLE "Disc1Track07_30"
    INDEX 01 00:49:44
  TRACK 31 AUDIO
    TITLE "Disc1Track07_31"
    INDEX 01 00:51:53
  TRACK 32 AUDIO
    TITLE "Disc1Track07_32"
    INDEX 01 00:53:10
  TRACK 33 AUDIO
    TITLE "Disc1Track07_33"
    INDEX 01 00:53:40
  TRACK 34 AUDIO
    TITLE "Disc1Track07_34"
    INDEX 01 00:54:67
  TRACK 35 AUDIO
    TITLE "Disc1Track07_35"
    INDEX 01 00:57:51
  TRACK 36 AUDIO
    TITLE "Disc1Track07_36"
    INDEX 01 00:59:03
  TRACK 37 AUDIO
    TITLE "Disc1Track07_37"
    INDEX 01 01:03:09
  TRACK 38 AUDIO
    TITLE "Disc1Track07_38"
    INDEX 01 01:03:40
  TRACK 39 AUDIO
    TITLE "Disc1Track07_39"
    INDEX 01 01:04:69
  TRACK 40 AUDIO
    TITLE "Disc1Track07_40"
    INDEX 01 01:06:56
  TRACK 41 AUDIO
    TITLE "Disc1Track07_41"
    INDEX 01 01:08:10
  TRACK 42 AUDIO
    TITLE "Disc1Track07_42"
    INDEX 01 01:13:23
  TRACK 43 AUDIO
    TITLE "Disc1Track07_43"
    INDEX 01 01:13:54
  TRACK 44 AUDIO
    TITLE "Disc1Track07_44"
    INDEX 01 01:15:18
  TRACK 45 AUDIO
    TITLE "Disc1Track07_45"
    INDEX 01 01:16:06
  TRACK 46 AUDIO
    TITLE "Disc1Track07_46"
    INDEX 01 01:17:42
  TRACK 47 AUDIO
    TITLE "Disc1Track07_47"
    INDEX 01 01:19:49
